<?xml version="1.0" encoding="UTF-8"?>
<svg version="1.1" xmlns="http://www.w3.org/2000/svg" width="666" height="666">
<path d="M0 0 C0.93714844 0.17692383 1.87429688 0.35384766 2.83984375 0.53613281 C21.00182059 4.02742916 38.92777074 8.82121808 56 16 C56.6614502 16.27537598 57.32290039 16.55075195 58.00439453 16.83447266 C84.53985381 27.95953158 108.44771398 43.14666855 129.5390625 62.72265625 C131.73959446 64.75902154 133.97728703 66.73261853 136.25 68.6875 C142.7940826 74.40859453 148.3763118 80.54603659 153.8203125 87.328125 C155.61170287 89.52402287 157.45252959 91.6086564 159.375 93.6875 C185.07637616 122.78789807 200.81998578 161.43286757 209.3125 198.8125 C209.67637817 200.40215576 209.67637817 200.40215576 210.04760742 202.02392578 C213.54673551 218.15034219 214.32587469 233.88139279 214.26074219 250.33862305 C214.25000425 253.56122596 214.26070871 256.78327306 214.2734375 260.00585938 C214.32372055 325.03558891 186.08473546 386.78125292 140.48828125 432.51953125 C139.66714844 433.33808594 138.84601563 434.15664063 138 435 C137.13503906 435.89976562 136.27007813 436.79953125 135.37890625 437.7265625 C128.60060488 444.73988676 121.44769439 450.88459759 113.65673828 456.74462891 C112.15008828 457.88627263 110.66549008 459.05687263 109.18359375 460.23046875 C74.50812554 487.30988845 32.32659265 503.66898522 -11 510 C-11.7852002 510.11714355 -12.57040039 510.23428711 -13.37939453 510.35498047 C-36.06787969 513.5797641 -60.34375298 513.31410293 -83 510 C-83.87817383 509.87641113 -84.75634766 509.75282227 -85.66113281 509.62548828 C-138.89656371 501.92306273 -192.71638371 477.76165026 -230.40625 438.59375 C-232.13010949 436.86989051 -233.94719574 435.31922422 -235.8125 433.75 C-248.59030935 422.66770766 -258.63476673 408.50532924 -268.3125 394.75 C-269.17439941 393.5271228 -269.17439941 393.5271228 -270.05371094 392.27954102 C-292.87128849 359.49828793 -305.30330346 320.43501536 -310 281 C-310.14139404 279.90171875 -310.14139404 279.90171875 -310.28564453 278.78125 C-311.21262766 270.83473273 -311.2434962 262.86519756 -311.25 254.875 C-311.25067474 254.12633667 -311.25134949 253.37767334 -311.25204468 252.60632324 C-311.22200298 231.49403113 -308.23380253 211.44103134 -303 191 C-302.78504883 190.13310547 -302.57009766 189.26621094 -302.34863281 188.37304688 C-292.06204397 147.31894789 -269.22473341 110.28016191 -240 80 C-239.02836914 78.98752197 -239.02836914 78.98752197 -238.03710938 77.95458984 C-229.43152542 69.02841361 -220.72731894 60.63141026 -210.73144531 53.27832031 C-208.94904835 51.96238257 -207.18884403 50.62024697 -205.4296875 49.2734375 C-191.90570333 39.01616855 -177.48285342 30.23535509 -162.12646484 23.00341797 C-160.65683319 22.3099408 -159.19123403 21.60787631 -157.72900391 20.89892578 C-144.52530118 14.50827916 -131.16571783 9.79000414 -117 6 C-115.67476318 5.64446045 -115.67476318 5.64446045 -114.32275391 5.28173828 C-77.85896329 -4.25452654 -37.18220308 -7.27049886 0 0 Z M-169 67 C-169.74072754 67.33789551 -170.48145508 67.67579102 -171.24462891 68.02392578 C-198.25416337 80.51715825 -222.87526647 99.19034672 -242 122 C-242.42265137 122.49290527 -242.84530273 122.98581055 -243.28076172 123.49365234 C-278.06426524 164.23381571 -292.19831225 215.20051866 -291 268 C-290.67 268 -290.34 268 -290 268 C-289.94054199 267.17725586 -289.88108398 266.35451172 -289.81982422 265.50683594 C-287.41201811 233.51804537 -282.64518207 201.54625659 -267.09765625 173.01855469 C-265.92908588 170.86959121 -264.79283478 168.70509498 -263.65625 166.5390625 C-256.57498905 153.22985802 -248.32574951 141.22015765 -238.02734375 130.1796875 C-236.21530002 128.23147863 -234.51343338 126.23201344 -232.8125 124.1875 C-199.57570645 86.39772103 -148.30219022 64.08899731 -98.7109375 60.27734375 C-50.56290982 57.19547613 -4.47544506 69.59683691 34 99 C35.54300781 100.15048828 35.54300781 100.15048828 37.1171875 101.32421875 C48.98867653 110.57129848 60.10437422 121.86960122 69 134 C69.6496875 134.8559375 70.299375 135.711875 70.96875 136.59375 C76.10564115 143.46928123 80.60022133 150.63973196 85 158 C85.33 157.34 85.66 156.68 86 156 C85.3602492 154.2507738 85.3602492 154.2507738 84.26171875 152.359375 C83.85872559 151.62525391 83.45573242 150.89113281 83.04052734 150.13476562 C82.59402832 149.34779297 82.1475293 148.56082031 81.6875 147.75 C81.2332666 146.94240234 80.7790332 146.13480469 80.31103516 145.30273438 C76.0243677 137.81399577 71.21118225 130.86690905 66 124 C65.41476562 123.19046875 64.82953125 122.3809375 64.2265625 121.546875 C35.28992766 83.05198521 -11.30996403 58.00084887 -58.47827148 50.89550781 C-96.32428464 45.81017648 -134.32519743 51.08630939 -169 67 Z M-134 124 C-134 124.66 -134 125.32 -134 126 C-134.56589844 126.23332031 -135.13179688 126.46664062 -135.71484375 126.70703125 C-157.65471566 139.1208733 -171.26928004 174.52814736 -178 197 C-191.20618333 244.63558989 -182.6422748 296.06066301 -159 339 C-152.88919153 349.28736584 -145.92921944 359.03653454 -138 368 C-137.54657227 368.51369141 -137.09314453 369.02738281 -136.62597656 369.55664062 C-111.65096554 397.68480936 -76.19595367 422.12034072 -38 427 C-38 427.66 -38 428.32 -38 429 C-43.6722358 428.03013585 -49.33745497 427.02488018 -55 426 C-55.80711426 425.85546387 -56.61422852 425.71092773 -57.44580078 425.56201172 C-85.01803663 420.56547771 -111.0888503 411.59182756 -134 395 C-134.5455957 394.61086426 -135.09119141 394.22172852 -135.65332031 393.82080078 C-165.9127571 372.02669809 -185.9234701 341.47448791 -199 307 C-201.68989992 315.06969976 -193.74812928 328.60882567 -190.2109375 335.9453125 C-182.64607631 351.03908257 -174.08891757 364.15594658 -162.453125 376.390625 C-160.5290266 378.43727744 -158.74934495 380.49579196 -157 382.6875 C-152.95221934 387.46388118 -147.91496182 391.16503637 -143 395 C-142.0821875 395.73347656 -141.164375 396.46695312 -140.21875 397.22265625 C-100.56368826 428.10784857 -50.93820846 439.09160299 -1.50634766 433.47827148 C40.677541 428.1650336 81.18887227 410.37612333 113 382 C113.50257324 381.55624023 114.00514648 381.11248047 114.52294922 380.65527344 C127.04676856 369.55384772 138.02250853 357.43223973 148 344 C148.78761719 342.94296875 149.57523438 341.8859375 150.38671875 340.796875 C175.72853428 305.41604425 189.52340302 261.2641499 189.3125 217.875 C189.31026428 216.72946655 189.31026428 216.72946655 189.3079834 215.56079102 C189.26463931 203.15920553 188.4590411 191.18106231 186 179 C185.73533936 177.66074463 185.73533936 177.66074463 185.46533203 176.29443359 C184.37849331 170.84685762 183.22009626 165.41920929 182 160 C181.67 160 181.34 160 181 160 C181.45605099 165.55662124 182.004197 171.08313161 182.74740601 176.60946655 C184.10615011 187.03742951 184.39929972 197.36806903 184.375 207.875 C184.37418427 209.21312241 184.37418427 209.21312241 184.37335205 210.57827759 C184.29250358 239.58638414 179.03446219 267.12897717 168 294 C167.74138184 294.64598145 167.48276367 295.29196289 167.21630859 295.95751953 C157.38184745 320.39630586 141.89567397 341.80884794 124 361 C123.27554687 361.79019531 122.55109375 362.58039063 121.8046875 363.39453125 C110.04756617 375.72954498 95.72736517 385.54402545 81 394 C80.39994141 394.34869141 79.79988281 394.69738281 79.18164062 395.05664062 C53.20458628 409.87234338 16.54118914 420.48853285 -13.35546875 413.1796875 C-24.90727986 409.60580197 -24.90727986 409.60580197 -28.0859375 404.12890625 C-29.70003137 400.36958506 -29.70399119 397.00546712 -29 393 C-26.95483092 388.08628209 -24.58161982 383.57881553 -20.796875 379.80078125 C-18.7645538 378.18803006 -18.7645538 378.18803006 -19 376 C-18.44441406 375.76925781 -17.88882813 375.53851562 -17.31640625 375.30078125 C-14.37834418 373.65090828 -12.34225401 371.55073308 -9.9375 369.1875 C-2.06596353 361.72027199 6.97951335 355.96963119 16 350 C48.5132293 328.43798538 72.55736863 300.90568648 81.375 262.0625 C88.75192791 225.32085257 80.0607081 186.03092663 60.6875 154.3125 C56.20044848 147.57163132 51.09987265 141.28165036 46 135 C45.41992188 134.27425781 44.83984375 133.54851562 44.2421875 132.80078125 C40.58581852 128.35519602 36.41932499 124.67351431 32 121 C31.27167969 120.37222656 30.54335938 119.74445313 29.79296875 119.09765625 C-16.94392844 79.9564737 -89.60277036 81.34183235 -134 124 Z M177 146 C178 148 178 148 178 148 Z M178 149 C179 152 179 152 179 152 Z M179 152 C180 156 180 156 180 156 Z M180 156 C181 160 181 160 181 160 Z M-208 267 C-208 268.65 -208 270.3 -208 272 C-207.67 272 -207.34 272 -207 272 C-207 270.35 -207 268.7 -207 267 C-207.33 267 -207.66 267 -208 267 Z M-290 274 C-290 275.98 -290 277.96 -290 280 C-289.67 280 -289.34 280 -289 280 C-289 278.02 -289 276.04 -289 274 C-289.33 274 -289.66 274 -290 274 Z M-204 293 C-203 295 -203 295 -203 295 Z M-203 296 C-202 299 -202 299 -202 299 Z M-202 300 C-201 303 -201 303 -201 303 Z M-201 304 C-200 307 -200 307 -200 307 Z " fill="#F8CB00" transform="translate(377,152)"/>
<path d="M0 0 C2.6337361 2.47395955 4.82700314 5.1184172 7 8 C7.89332031 9.10794922 7.89332031 9.10794922 8.8046875 10.23828125 C20.02336934 24.94775465 21.71178164 42.69327457 19.57421875 60.55859375 C15.95137931 76.93916227 6.51696911 90.47720041 -7.5 99.5 C-21.93250558 107.77417781 -38.53038348 110.86226605 -54.98828125 107.28125 C-58.09959726 106.35717051 -61.02234103 105.28763631 -64 104 C-64.87527344 103.649375 -65.75054687 103.29875 -66.65234375 102.9375 C-73.54795938 99.87750416 -78.69337095 95.28870125 -84 90 C-84.639375 89.38382812 -85.27875 88.76765625 -85.9375 88.1328125 C-96.49595262 77.15013634 -100.92570443 62.26859524 -101.3125 47.3125 C-100.64494646 28.48192712 -93.78547245 12.82416217 -80.125 -0.22265625 C-56.78253406 -19.74622611 -23.57415183 -17.93279378 0 0 Z " fill="#F7CA00" transform="translate(465,20)"/>
<path d="M0 0 C2.5625 2.3125 2.5625 2.3125 5 5 C5.61617188 5.62390625 6.23234375 6.2478125 6.8671875 6.890625 C18.72106122 19.3260095 22.50062033 33.86771308 22.3515625 50.63671875 C21.91782869 66.56438812 15.98330414 80.38907848 5 92 C-7.00390289 103.35504327 -21.7007912 109.60996707 -38.1875 109.5 C-39.19200195 109.49427979 -40.19650391 109.48855957 -41.23144531 109.48266602 C-54.56112727 109.16534351 -65.22787218 104.86273262 -76 97 C-77.03125 96.278125 -78.0625 95.55625 -79.125 94.8125 C-91.95018286 83.47429486 -97.85153326 67.69187693 -99.25 51.01953125 C-99.69236676 31.85952112 -92.2517881 16.13830152 -79.41015625 2.2890625 C-57.8043227 -18.23122674 -22.84247222 -17.67685091 0 0 Z " fill="#F8CB00" transform="translate(270,19)"/>
<path d="M0 0 C0 0.66 0 1.32 0 2 C-1.09699219 2.19335938 -2.19398438 2.38671875 -3.32421875 2.5859375 C-4.77869582 2.84868175 -6.23312017 3.11171801 -7.6875 3.375 C-8.40873047 3.50132812 -9.12996094 3.62765625 -9.87304688 3.7578125 C-10.57880859 3.88671875 -11.28457031 4.015625 -12.01171875 4.1484375 C-12.65584717 4.26364746 -13.29997559 4.37885742 -13.96362305 4.49755859 C-16.10252794 4.97495042 -16.10252794 4.97495042 -18.44775391 5.98388672 C-29.40466611 10.3461087 -42.0400627 9.3068772 -53.60131836 9.26074219 C-56.82229181 9.24996724 -60.04271477 9.26071128 -63.26367188 9.2734375 C-65.32812622 9.27211677 -67.39258023 9.26955616 -69.45703125 9.265625 C-70.88847221 9.27169769 -70.88847221 9.27169769 -72.34883118 9.27789307 C-77.62297799 9.24101895 -82.00812307 8.72787491 -87 7 C-87 6.67 -87 6.34 -87 6 C-86.1793103 6.04543945 -86.1793103 6.04543945 -85.34204102 6.09179688 C-78.89651314 6.44176811 -72.44971504 6.73866447 -66 7 C-65.26475098 7.03158203 -64.52950195 7.06316406 -63.77197266 7.09570312 C-44.88653846 7.81409565 -25.6799945 5.35317986 -7.37890625 0.76953125 C-4 0 -4 0 0 0 Z " fill="#733200" transform="translate(408,579)"/>
<path d="M0 0 C0.33 0 0.66 0 1 0 C1.01981934 1.20833496 1.03963867 2.41666992 1.06005859 3.66162109 C1.13734711 8.23552934 1.22584992 12.80916902 1.31738281 17.3828125 C1.35517267 19.34532286 1.39010245 21.30789082 1.421875 23.27050781 C1.59663508 33.94179527 1.93467683 44.48793152 3.30941772 55.0809021 C4.12956083 61.42237083 4.20314615 67.61218203 4 74 C3.67 74 3.34 74 3 74 C2.51656634 70.87564509 2.03906941 67.75040869 1.5625 64.625 C1.42779297 63.75488281 1.29308594 62.88476562 1.15429688 61.98828125 C-0.50941261 51.03214559 -1.16155118 40.34468134 -1.13037109 29.26855469 C-1.12501063 27.00448919 -1.13034526 24.740622 -1.13671875 22.4765625 C-1.13982353 14.92572916 -0.93798896 7.50391165 0 0 Z " fill="#823400" transform="translate(67,379)"/>
<path d="M0 0 C6.11282775 -0.09702901 11.94007882 0.26135134 18 1 C26.15550534 1.90721274 34.23339946 2.19227816 42.4375 2.1875 C43.50935547 2.18814453 44.58121094 2.18878906 45.68554688 2.18945312 C51.12950679 2.19298522 51.12950679 2.19298522 56.51074219 1.49560547 C59.10356747 0.97937996 61.44120536 0.88614236 64.08203125 0.90234375 C65.01337891 0.90556641 65.94472656 0.90878906 66.90429688 0.91210938 C67.86400391 0.92048828 68.82371094 0.92886719 69.8125 0.9375 C70.79154297 0.94201172 71.77058594 0.94652344 72.77929688 0.95117188 C75.18626111 0.96291316 77.59309857 0.97933581 80 1 C80 1.33 80 1.66 80 2 C56.20914772 5.20261473 31.79120249 5.18098041 8 2 C6.48974165 1.80993565 4.9793289 1.62109336 3.46875 1.43359375 C2.3240625 1.29050781 1.179375 1.14742187 0 1 C0 0.67 0 0.34 0 0 Z " fill="#CA5A00" transform="translate(286,660)"/>
<path d="M0 0 C0.33 0 0.66 0 1 0 C3.33903464 53.1180772 3.33903464 53.1180772 -11 71 C-10.37728408 67.14979302 -9.22732447 63.63817098 -7.93041992 59.97802734 C-0.93416905 40.08144484 -0.34320425 20.84254741 0 0 Z " fill="#3D1D00" transform="translate(460,371)"/>
<path d="M0 0 C0.33 0 0.66 0 1 0 C0.98952637 1.21582764 0.97905273 2.43165527 0.96826172 3.68432617 C0.93200769 8.2036646 0.9090798 12.72299022 0.89013672 17.24243164 C0.88009147 19.19688073 0.86645283 21.15131484 0.84912109 23.10571289 C0.82480797 25.91816917 0.81350203 28.73042639 0.8046875 31.54296875 C0.79436493 32.41398727 0.78404236 33.2850058 0.77340698 34.18241882 C0.77258912 38.62450623 1.02574933 41.92810799 3 46 C3.1953125 48.45703125 3.1953125 48.45703125 3.125 50.8125 C3.10695313 51.60269531 3.08890625 52.39289063 3.0703125 53.20703125 C3.03550781 54.09455078 3.03550781 54.09455078 3 55 C2.34 55 1.68 55 1 55 C1 51.04 1 47.08 1 43 C0.34 43 -0.32 43 -1 43 C-0.98259766 41.58847656 -0.98259766 41.58847656 -0.96484375 40.1484375 C-0.95582031 38.90320313 -0.94679688 37.65796875 -0.9375 36.375 C-0.92589844 35.14523437 -0.91429688 33.91546875 -0.90234375 32.6484375 C-0.88913794 29.13311903 -0.88913794 29.13311903 -1.5625 26.28125 C-2.24251843 21.18111175 -1.56828947 16.22687641 -1.0625 11.125 C-0.96259766 10.05507813 -0.86269531 8.98515625 -0.75976562 7.8828125 C-0.51335939 5.25447932 -0.25990326 2.62702705 0 0 Z " fill="#6C3000" transform="translate(88,397)"/>
<path d="M0 0 C7.78593716 1.61088355 15.37428218 3.76543688 23 6 C23 6.66 23 7.32 23 8 C13.2831476 6.91779132 3.62564851 5.74337372 -6 4 C-6 3.67 -6 3.34 -6 3 C-4.02 2.67 -2.04 2.34 0 2 C0 1.34 0 0.68 0 0 Z " fill="#B67000" transform="translate(316,573)"/>
<path d="M0 0 C8.66782546 0.30629403 17.33411324 0.64320035 26 1 C26.83370117 1.03206543 27.66740234 1.06413086 28.52636719 1.09716797 C36.52310927 1.41812564 44.51497644 1.90835983 52 5 C52.495 5.99 52.495 5.99 53 7 C47.86689393 6.46951168 42.80269609 5.83173023 37.7199707 4.9465332 C25.21969274 2.78410746 12.6466699 1.86273057 0 1 C0 0.67 0 0.34 0 0 Z " fill="#CC6B00" transform="translate(286,200)"/>
<path d="M0 0 C0.66 0 1.32 0 2 0 C2 0.66 2 1.32 2 2 C2.66 2 3.32 2 4 2 C4.33 3.65 4.66 5.3 5 7 C5.66 7 6.32 7 7 7 C7.33 8.65 7.66 10.3 8 12 C8.66 12 9.32 12 10 12 C10 13.32 10 14.64 10 16 C10.66 16 11.32 16 12 16 C12 17.98 12 19.96 12 22 C12.99 22.33 13.98 22.66 15 23 C15 24.65 15 26.3 15 28 C12.6875 27.5625 12.6875 27.5625 10 26 C8.63924116 23.09244107 7.78637041 20.10712212 7 17 C7.99 17.66 8.98 18.32 10 19 C9.69707031 18.45996338 9.39414062 17.91992676 9.08203125 17.36352539 C7.71916414 14.93106969 6.35954222 12.49681547 5 10.0625 C4.28457031 8.78729492 4.28457031 8.78729492 3.5546875 7.48632812 C3.10351562 6.67744141 2.65234375 5.86855469 2.1875 5.03515625 C1.76855469 4.2862915 1.34960938 3.53742676 0.91796875 2.76586914 C0 1 0 1 0 0 Z " fill="#804200" transform="translate(452,289)"/>
<path d="M0 0 C6.32963326 1.89066967 12.09175149 4.84093035 18.01171875 7.72265625 C22.28149682 9.77948098 26.44403494 11.63912732 31 13 C31 13.33 31 13.66 31 14 C29.58376784 14.05447047 28.16691809 14.09300508 26.75 14.125 C25.96109375 14.14820313 25.1721875 14.17140625 24.359375 14.1953125 C21.79268059 13.9828378 20.2083933 13.28654105 18 12 C18 11.34 18 10.68 18 10 C17.01 10 16.02 10 15 10 C15 9.34 15 8.68 15 8 C12.03 7.505 12.03 7.505 9 7 C9 6.34 9 5.68 9 5 C7.68 5 6.36 5 5 5 C5 4.34 5 3.68 5 3 C3.68 3 2.36 3 1 3 C0.67 2.01 0.34 1.02 0 0 Z " fill="#783B00" transform="translate(285,559)"/>
<path d="M0 0 C2.74057325 3.27100678 4.18058075 6.58477621 5.6875 10.5625 C6.12449219 11.69816406 6.56148437 12.83382813 7.01171875 14.00390625 C8 17 8 17 8 20 C8.66 20 9.32 20 10 20 C12.04898287 24.21896866 12.21207997 27.65372146 12.125 32.3125 C12.10695313 33.56675781 12.08890625 34.82101562 12.0703125 36.11328125 C12.04710937 37.06589844 12.02390625 38.01851563 12 39 C9.91997866 35.87996799 9.77486459 35.04648449 9.625 31.48828125 C9.13611957 25.58419235 7.24162005 20.63087456 5 15.1875 C4.26732412 13.36990022 3.5380366 11.55093011 2.8125 9.73046875 C2.48894531 8.94051514 2.16539062 8.15056152 1.83203125 7.33666992 C0.96701365 4.90736139 0.44507552 2.53698668 0 0 Z M10 29 C11 31 11 31 11 31 Z " fill="#200F00" transform="translate(544,269)"/>
<path d="M0 0 C4.85110358 4.41009417 8.348107 9.58004353 12 15 C11.67 15.66 11.34 16.32 11 17 C10.34 15.68 9.68 14.36 9 13 C8.01 13 7.02 13 6 13 C6.33 15.31 6.66 17.62 7 20 C4 16.25 4 16.25 4 14 C3.34 14 2.68 14 2 14 C1.34 11.36 0.68 8.72 0 6 C1.485 6.99 1.485 6.99 3 8 C2.505 7.05125 2.01 6.1025 1.5 5.125 C0 2 0 2 0 0 Z " fill="#9C6200" transform="translate(535,245)"/>
<path d="M0 0 C0.66 0.33 1.32 0.66 2 1 C1.3503125 1.5878125 1.3503125 1.5878125 0.6875 2.1875 C-1.1048722 3.97755989 -1.1048722 3.97755989 -2.375 6.375 C-4.87767596 10.41778424 -7.436195 13.47873167 -12 15 C-13.39712274 16.95597184 -14.73779907 18.95436401 -16 21 C-16.33 20.34 -16.66 19.68 -17 19 C-13.61192397 14.3079222 -10.2092548 9.99879206 -6 6 C-4.8932075 4.89846542 -3.78908383 3.79424347 -2.6875 2.6875 C-1.800625 1.800625 -0.91375 0.91375 0 0 Z " fill="#804900" transform="translate(367,520)"/>
<path d="M0 0 C2.64438475 2.64438475 3.07367821 5.48986018 4 9 C4.42579382 10.44776542 4.85563627 11.89434494 5.2890625 13.33984375 C5.73476732 14.87228178 6.18007461 16.40483549 6.625 17.9375 C6.85445313 18.69740234 7.08390625 19.45730469 7.3203125 20.24023438 C8.78133141 25.33205922 9.22898767 29.70315359 9 35 C6.69367587 32.69367587 6.53939612 31.67218529 5.9296875 28.53515625 C5.75566406 27.65279297 5.58164062 26.77042969 5.40234375 25.86132812 C5.22832031 24.93771484 5.05429687 24.01410156 4.875 23.0625 C4.69324219 22.14275391 4.51148438 21.22300781 4.32421875 20.27539062 C3 13.45018797 3 13.45018797 3 10 C2.34 10 1.68 10 1 10 C0.67 6.7 0.34 3.4 0 0 Z " fill="#BC8401" transform="translate(475,338)"/>
<path d="M0 0 C0 0.33 0 0.66 0 1 C-10.02355489 1.20272358 -19.99847189 0.58039956 -30 0 C-30 -0.33 -30 -0.66 -30 -1 C-19.93594403 -2.87238251 -9.91066554 -2.50563102 0 0 Z " fill="#723500" transform="translate(249,8)"/>
<path d="M0 0 C0.33 0 0.66 0 1 0 C3.03977033 10.13814418 4.48741178 19.61993429 4 30 C3.67 30 3.34 30 3 30 C2.48722171 26.87696198 1.99223175 23.75133678 1.5 20.625 C1.35691406 19.75488281 1.21382813 18.88476562 1.06640625 17.98828125 C0.12624029 11.94435724 -0.17771303 6.11299899 0 0 Z " fill="#733700" transform="translate(67,423)"/>
<path d="M0 0 C1.23922223 3.71766668 0.57018942 5.43889537 -0.4375 9.1875 C-0.72496094 10.27417969 -1.01242188 11.36085938 -1.30859375 12.48046875 C-1.65083984 13.72763672 -1.65083984 13.72763672 -2 15 C-2.66 15 -3.32 15 -4 15 C-4.12375 16.155 -4.2475 17.31 -4.375 18.5 C-4.90278885 22.78350375 -5.88398037 26.83352672 -7 31 C-7.33 31 -7.66 31 -8 31 C-7.44592482 24.17794933 -6.04896862 18.08150629 -4 11.5625 C-3.72671875 10.66595703 -3.4534375 9.76941406 -3.171875 8.84570312 C-1.17422945 2.3484589 -1.17422945 2.3484589 0 0 Z " fill="#241000" transform="translate(101,342)"/>
<path d="M0 0 C0.33 0 0.66 0 1 0 C0.91825827 3.5008943 0.80549732 7.00015493 0.6875 10.5 C0.66494141 11.48226563 0.64238281 12.46453125 0.61914062 13.4765625 C0.39371503 19.62453337 -0.49962849 24.36913654 -3 30 C-3.33 30 -3.66 30 -4 30 C-3.2909395 23.28801953 -2.40886277 16.61619997 -1.4375 9.9375 C-1.22963867 8.49600586 -1.22963867 8.49600586 -1.01757812 7.02539062 C-0.67967948 4.68340345 -0.34046465 2.34161527 0 0 Z " fill="#5A2D00" transform="translate(565,387)"/>
<path d="M0 0 C0.6640625 1.80859375 0.6640625 1.80859375 1 4 C-1.6089874 8.01156333 -5.85871722 10.76146877 -10 13 C-10.99 13.66 -11.98 14.32 -13 15 C-11.38989473 10.92623969 -8.46177729 8.23492931 -5.375 5.25 C-4.859375 4.74339844 -4.34375 4.23679688 -3.8125 3.71484375 C-2.54616661 2.47196098 -1.2736856 1.23534724 0 0 Z " fill="#844F00" transform="translate(142,227)"/>
<path d="M0 0 C0.66 0.33 1.32 0.66 2 1 C1.02417969 1.60328125 0.04835937 2.2065625 -0.95703125 2.828125 C-2.24243579 3.63502128 -3.52757836 4.44233497 -4.8125 5.25 C-5.77639648 5.84361328 -5.77639648 5.84361328 -6.75976562 6.44921875 C-10.19003356 8.61757464 -12.82235398 10.47043247 -15 14 C-16.32 13.67 -17.64 13.34 -19 13 C-12.98638658 8.29594136 -6.76528415 3.56487195 0 0 Z " fill="#442200" transform="translate(194,186)"/>
<path d="M0 0 C1.1777059 3.53311771 0.65235719 5.37579339 0 9 C-0.03622333 10.66627298 -0.04899842 12.33405374 0 14 C0.66 14 1.32 14 2 14 C2 14.66 2 15.32 2 16 C2.66 16 3.32 16 4 16 C4.33 17.32 4.66 18.64 5 20 C2.41515408 19.0195412 1.05156969 18.06077857 -0.75 15.9375 C-2.44539482 11.95332218 -2.58917111 8.27722925 -2 4 C-0.98046875 1.72265625 -0.98046875 1.72265625 0 0 Z " fill="#713B00" transform="translate(349,541)"/>
<path d="M0 0 C-1 3 -1 3 -3.19921875 4.1171875 C-6.06678234 5.02104994 -8.84876997 5.62509373 -11.8125 6.125 C-12.78832031 6.29257813 -13.76414063 6.46015625 -14.76953125 6.6328125 C-15.87361328 6.81457031 -15.87361328 6.81457031 -17 7 C-14.12145363 4.66911211 -11.38015172 3.16775203 -7.9375 1.8125 C-7.08027344 1.46832031 -6.22304687 1.12414062 -5.33984375 0.76953125 C-3 0 -3 0 0 0 Z " fill="#753800" transform="translate(243,164)"/>
<path d="M0 0 C0 0.66 0 1.32 0 2 C-3.99795892 2.95619733 -7.70803922 3.1039592 -11.8125 3.0625 C-12.97394531 3.05347656 -14.13539063 3.04445312 -15.33203125 3.03515625 C-16.21246094 3.02355469 -17.09289062 3.01195312 -18 3 C-18 2.67 -18 2.34 -18 2 C-11.88019467 0.59545452 -6.28260706 -0.23268915 0 0 Z " fill="#874700" transform="translate(271,213)"/>
<path d="M0 0 C0.66 0.33 1.32 0.66 2 1 C-2.13072892 6.31093718 -5.99645961 9.00457604 -12 12 C-8.32167983 7.47384007 -4.58913637 3.60575001 0 0 Z " fill="#5F3300" transform="translate(166,255)"/>
<path d="M0 0 C-0.99 0 -1.98 0 -3 0 C-3 0.66 -3 1.32 -3 2 C-7.92737019 3.97094808 -11.78020872 4.1799928 -17 4 C-14.23719462 2.15812975 -12.19292174 1.27751723 -9.0625 0.3125 C-7.78052734 -0.09548828 -7.78052734 -0.09548828 -6.47265625 -0.51171875 C-3.89489426 -1.02075548 -2.45550663 -0.84888744 0 0 Z " fill="#713C00" transform="translate(260,160)"/>
<path d="M0 0 C0.99 0.99 1.98 1.98 3 3 C3.66 2.67 4.32 2.34 5 2 C5 2.99 5 3.98 5 5 C5.99 5.33 6.98 5.66 8 6 C8 7.65 8 9.3 8 11 C5.6875 10.5625 5.6875 10.5625 3 9 C1.63924116 6.09244107 0.78637041 3.10712212 0 0 Z " fill="#773600" transform="translate(459,306)"/>
<path d="M0 0 C2.74097805 2.74097805 2.98573859 4.50997793 3.09765625 8.35546875 C3.08605469 9.62003906 3.07445312 10.88460938 3.0625 12.1875 C3.05347656 13.45980469 3.04445313 14.73210937 3.03515625 16.04296875 C3.02355469 17.01878906 3.01195312 17.99460937 3 19 C-0.67977262 13.48034107 -0.13780952 6.47704725 0 0 Z M1 9 C2 11 2 11 2 11 Z " fill="#A44600" transform="translate(553,289)"/>
<path d="M0 0 C3.1166231 2.54996436 4.01692052 5.14330357 5 9 C5.125 12.375 5.125 12.375 5 15 C2.82813579 12.82813579 2.3206752 11.50023469 1.375 8.625 C1.11460938 7.85414063 0.85421875 7.08328125 0.5859375 6.2890625 C0 4 0 4 0 0 Z " fill="#7E3B00" transform="translate(78,481)"/>
<path d="M0 0 C2.06277107 0.14194764 4.12521031 0.28872216 6.1875 0.4375 C7.91033203 0.55931641 7.91033203 0.55931641 9.66796875 0.68359375 C12.51598171 0.95403812 15.21210482 1.37521747 18 2 C18 2.33 18 2.66 18 3 C5.33029613 3.3690205 5.33029613 3.3690205 0 1 C0 0.67 0 0.34 0 0 Z " fill="#6C3500" transform="translate(364,151)"/>
<path d="M0 0 C4.571279 0.54855348 8.67435795 1.41744803 13 3 C13 3.33 13 3.66 13 4 C11.58376784 4.05447047 10.16691809 4.09300508 8.75 4.125 C7.96109375 4.14820313 7.1721875 4.17140625 6.359375 4.1953125 C3.79268059 3.9828378 2.2083933 3.28654105 0 2 C0 1.34 0 0.68 0 0 Z " fill="#A15800" transform="translate(303,569)"/>
<path d="M0 0 C0 0.33 0 0.66 0 1 C-5.89738492 3.29342747 -10.66606918 4.34548714 -17 4 C-11.77468437 0.51645625 -6.1868663 -0.30934332 0 0 Z " fill="#602C00" transform="translate(253,216)"/>
<path d="M0 0 C0.66 0.33 1.32 0.66 2 1 C-2.75 5 -2.75 5 -5 5 C-5.66 6.32 -6.32 7.64 -7 9 C-8.32 8.67 -9.64 8.34 -11 8 C-7.37 5.36 -3.74 2.72 0 0 Z " fill="#552700" transform="translate(476,544)"/>
<path d="M0 0 C1.485 0.99 1.485 0.99 3 2 C2.67 2.66 2.34 3.32 2 4 C2.99 4.33 3.98 4.66 5 5 C4.67 6.32 4.34 7.64 4 9 C4.66 9 5.32 9 6 9 C6 10.65 6 12.3 6 14 C3.52813545 11.03653214 2.33751639 8.45958311 1.3125 4.75 C1.06113281 3.85796875 0.80976563 2.9659375 0.55078125 2.046875 C0.36902344 1.37140625 0.18726563 0.6959375 0 0 Z " fill="#7C4700" transform="translate(180,464)"/>
<path d="M0 0 C1.45880109 0.14107747 2.91703551 0.28802415 4.375 0.4375 C5.59316406 0.55931641 5.59316406 0.55931641 6.8359375 0.68359375 C9 1 9 1 11 2 C11 2.66 11 3.32 11 4 C7.37 3.67 3.74 3.34 0 3 C0 2.01 0 1.02 0 0 Z " fill="#772500" transform="translate(328,577)"/>
<path d="M0 0 C0.33 0 0.66 0 1 0 C0.88529863 1.75070517 0.75780972 3.50057536 0.625 5.25 C0.55539062 6.22453125 0.48578125 7.1990625 0.4140625 8.203125 C0.01534751 10.89633189 -0.63507063 12.66963279 -2 15 C-2.3690205 4.44191344 -2.3690205 4.44191344 0 0 Z " fill="#D37301" transform="translate(558,397)"/>
<path d="M0 0 C0.66 0 1.32 0 2 0 C2.53190541 1.43344 3.05015258 2.87195367 3.5625 4.3125 C3.85253906 5.11300781 4.14257812 5.91351563 4.44140625 6.73828125 C5 9 5 9 4 12 C3.01 11.34 2.02 10.68 1 10 C0.32095532 6.60477658 0 3.46006569 0 0 Z " fill="#653000" transform="translate(467,317)"/>
<path d="M0 0 C1.9375 0.3125 1.9375 0.3125 4 1 C4.33 1.99 4.66 2.98 5 4 C5.495 4.474375 5.99 4.94875 6.5 5.4375 C8.24185971 7.25193719 8.57855013 8.55559077 9 11 C5.36440339 7.56638098 2.63886654 4.2026393 0 0 Z " fill="#843D00" transform="translate(116,556)"/>
<path d="M0 0 C0.66 0.33 1.32 0.66 2 1 C-0.01877466 4.028162 -0.81408973 4.66941791 -3.9375 6.1875 C-4.62714844 6.53167969 -5.31679688 6.87585938 -6.02734375 7.23046875 C-8 8 -8 8 -11 8 C-7.37 5.36 -3.74 2.72 0 0 Z " fill="#472300" transform="translate(390,503)"/>
<path d="M0 0 C1.23922223 3.71766668 0.57018942 5.43889537 -0.4375 9.1875 C-0.72496094 10.27417969 -1.01242188 11.36085938 -1.30859375 12.48046875 C-1.65083984 13.72763672 -1.65083984 13.72763672 -2 15 C-2.33 15 -2.66 15 -3 15 C-3.36263859 9.1977825 -2.25684543 5.36000789 0 0 Z " fill="#904200" transform="translate(101,342)"/>
<path d="M0 0 C4.57478244 2.0214155 7.61831569 4.31993178 11 8 C8.5625 7.625 8.5625 7.625 6 7 C5.67 6.34 5.34 5.68 5 5 C4.01 4.67 3.02 4.34 2 4 C2 3.34 2 2.68 2 2 C1.34 2 0.68 2 0 2 C0 1.34 0 0.68 0 0 Z " fill="#7F3900" transform="translate(478,193)"/>
<path d="M0 0 C1.77174819 0.08723378 3.54247377 0.19541655 5.3125 0.3125 C6.29863281 0.37050781 7.28476562 0.42851563 8.30078125 0.48828125 C11.24384457 1.04622813 12.18182999 1.68540132 14 4 C9.03083364 3.48594831 4.70973649 2.76615118 0 1 C0 0.67 0 0.34 0 0 Z " fill="#BF6700" transform="translate(253,652)"/>
<path d="M0 0 C1.39864092 3.17872935 0.89282517 4.30111022 -0.3125 7.6875 C-2 11 -2 11 -4 12 C-3.33501617 7.61110675 -1.81242323 4.0188515 0 0 Z " fill="#843900" transform="translate(86,308)"/>
<path d="M0 0 C0.66 0.33 1.32 0.66 2 1 C0.35 2.98 -1.3 4.96 -3 7 C-4.32 6.67 -5.64 6.34 -7 6 C-4.69 4.02 -2.38 2.04 0 0 Z " fill="#643300" transform="translate(485,537)"/>
<path d="M0 0 C-0.33 0.99 -0.66 1.98 -1 3 C-5.455 3.495 -5.455 3.495 -10 4 C-7.02096266 1.02096266 -4.19714671 0 0 0 Z " fill="#693200" transform="translate(433,570)"/>
<path d="M0 0 C0.33 0 0.66 0 1 0 C1.29296875 6.0546875 1.29296875 6.0546875 1 8 C0.01 8.66 -0.98 9.32 -2 10 C-1.34 6.7 -0.68 3.4 0 0 Z " fill="#6F3200" transform="translate(558,425)"/>
<path d="M0 0 C3.08089673 2.77280706 4.68775452 5.06326356 6 9 C3.5625 7.875 3.5625 7.875 1 6 C0.1875 2.8125 0.1875 2.8125 0 0 Z " fill="#924200" transform="translate(447,287)"/>
</svg>
